<mxfile host="app.diagrams.net" agent="Mozilla/5.0 (Windows NT 10.0; Win64; x64) AppleWebKit/537.36 (KHTML, like Gecko) Chrome/126.0.0.0 Safari/537.36 Edg/126.0.0.0" version="24.7.14">
  <diagram name="Pagina-1" id="R1Bk_UH2O-eh8jbL00Mn">
    <mxGraphModel dx="548" dy="302" grid="1" gridSize="10" guides="1" tooltips="1" connect="1" arrows="1" fold="1" page="1" pageScale="1" pageWidth="827" pageHeight="1169" math="0" shadow="0">
      <root>
        <mxCell id="0" />
        <mxCell id="1" parent="0" />
        <mxCell id="LVVy7EBwjXT8dUYhMv2Q-23" value="" style="group" vertex="1" connectable="0" parent="1">
          <mxGeometry x="120" y="120" width="480" height="240" as="geometry" />
        </mxCell>
        <mxCell id="LVVy7EBwjXT8dUYhMv2Q-6" style="edgeStyle=orthogonalEdgeStyle;rounded=0;orthogonalLoop=1;jettySize=auto;html=1;exitX=1;exitY=0.5;exitDx=0;exitDy=0;entryX=0;entryY=0.5;entryDx=0;entryDy=0;" edge="1" parent="LVVy7EBwjXT8dUYhMv2Q-23" source="LVVy7EBwjXT8dUYhMv2Q-1" target="LVVy7EBwjXT8dUYhMv2Q-2">
          <mxGeometry relative="1" as="geometry">
            <Array as="points">
              <mxPoint x="140" y="40" />
              <mxPoint x="140" y="40" />
            </Array>
          </mxGeometry>
        </mxCell>
        <mxCell id="LVVy7EBwjXT8dUYhMv2Q-1" value="P0" style="ellipse;whiteSpace=wrap;html=1;aspect=fixed;fillColor=#f5f5f5;fontColor=#333333;strokeColor=#666666;" vertex="1" parent="LVVy7EBwjXT8dUYhMv2Q-23">
          <mxGeometry width="80" height="80" as="geometry" />
        </mxCell>
        <mxCell id="LVVy7EBwjXT8dUYhMv2Q-8" style="edgeStyle=orthogonalEdgeStyle;rounded=0;orthogonalLoop=1;jettySize=auto;html=1;exitX=1;exitY=0.5;exitDx=0;exitDy=0;entryX=0;entryY=0.5;entryDx=0;entryDy=0;" edge="1" parent="LVVy7EBwjXT8dUYhMv2Q-23" source="LVVy7EBwjXT8dUYhMv2Q-2" target="LVVy7EBwjXT8dUYhMv2Q-3">
          <mxGeometry relative="1" as="geometry" />
        </mxCell>
        <mxCell id="LVVy7EBwjXT8dUYhMv2Q-2" value="P1" style="ellipse;whiteSpace=wrap;html=1;aspect=fixed;fillColor=#f5f5f5;fontColor=#333333;strokeColor=#666666;" vertex="1" parent="LVVy7EBwjXT8dUYhMv2Q-23">
          <mxGeometry x="200" width="80" height="80" as="geometry" />
        </mxCell>
        <mxCell id="LVVy7EBwjXT8dUYhMv2Q-3" value="P2" style="ellipse;whiteSpace=wrap;html=1;aspect=fixed;labelBackgroundColor=none;labelBorderColor=none;textShadow=1;fillColor=#f5f5f5;fontColor=#333333;strokeColor=#666666;" vertex="1" parent="LVVy7EBwjXT8dUYhMv2Q-23">
          <mxGeometry x="400" width="80" height="80" as="geometry" />
        </mxCell>
        <mxCell id="LVVy7EBwjXT8dUYhMv2Q-9" value="" style="endArrow=classic;html=1;rounded=0;" edge="1" parent="LVVy7EBwjXT8dUYhMv2Q-23">
          <mxGeometry width="50" height="50" relative="1" as="geometry">
            <mxPoint x="40" y="120" as="sourcePoint" />
            <mxPoint x="230" y="120" as="targetPoint" />
          </mxGeometry>
        </mxCell>
        <mxCell id="LVVy7EBwjXT8dUYhMv2Q-10" value="R 0,1" style="edgeLabel;html=1;align=center;verticalAlign=middle;resizable=0;points=[];" vertex="1" connectable="0" parent="LVVy7EBwjXT8dUYhMv2Q-9">
          <mxGeometry x="-0.0086" y="-1" relative="1" as="geometry">
            <mxPoint y="-11" as="offset" />
          </mxGeometry>
        </mxCell>
        <mxCell id="LVVy7EBwjXT8dUYhMv2Q-11" value="" style="endArrow=classic;html=1;rounded=0;" edge="1" parent="LVVy7EBwjXT8dUYhMv2Q-23">
          <mxGeometry width="50" height="50" relative="1" as="geometry">
            <mxPoint x="250" y="120" as="sourcePoint" />
            <mxPoint x="440" y="120" as="targetPoint" />
          </mxGeometry>
        </mxCell>
        <mxCell id="LVVy7EBwjXT8dUYhMv2Q-12" value="R 1,2" style="edgeLabel;html=1;align=center;verticalAlign=middle;resizable=0;points=[];" vertex="1" connectable="0" parent="LVVy7EBwjXT8dUYhMv2Q-11">
          <mxGeometry x="-0.0086" y="-1" relative="1" as="geometry">
            <mxPoint y="9" as="offset" />
          </mxGeometry>
        </mxCell>
        <mxCell id="LVVy7EBwjXT8dUYhMv2Q-13" value="" style="endArrow=classic;html=1;rounded=0;" edge="1" parent="LVVy7EBwjXT8dUYhMv2Q-23">
          <mxGeometry width="50" height="50" relative="1" as="geometry">
            <mxPoint x="40" y="200" as="sourcePoint" />
            <mxPoint x="440" y="200" as="targetPoint" />
          </mxGeometry>
        </mxCell>
        <mxCell id="LVVy7EBwjXT8dUYhMv2Q-14" value="R 0,2" style="edgeLabel;html=1;align=center;verticalAlign=middle;resizable=0;points=[];" vertex="1" connectable="0" parent="LVVy7EBwjXT8dUYhMv2Q-13">
          <mxGeometry x="0.0324" y="2" relative="1" as="geometry">
            <mxPoint x="14" y="-8" as="offset" />
          </mxGeometry>
        </mxCell>
        <mxCell id="LVVy7EBwjXT8dUYhMv2Q-16" value="" style="endArrow=none;dashed=1;html=1;dashPattern=1 3;strokeWidth=2;rounded=0;" edge="1" parent="LVVy7EBwjXT8dUYhMv2Q-23">
          <mxGeometry width="50" height="50" relative="1" as="geometry">
            <mxPoint x="40" y="240" as="sourcePoint" />
            <mxPoint x="40" y="80" as="targetPoint" />
          </mxGeometry>
        </mxCell>
        <mxCell id="LVVy7EBwjXT8dUYhMv2Q-17" value="T0" style="edgeLabel;html=1;align=center;verticalAlign=middle;resizable=0;points=[];" vertex="1" connectable="0" parent="LVVy7EBwjXT8dUYhMv2Q-16">
          <mxGeometry x="-0.1101" y="2" relative="1" as="geometry">
            <mxPoint as="offset" />
          </mxGeometry>
        </mxCell>
        <mxCell id="LVVy7EBwjXT8dUYhMv2Q-18" value="" style="endArrow=none;dashed=1;html=1;dashPattern=1 3;strokeWidth=2;rounded=0;" edge="1" parent="LVVy7EBwjXT8dUYhMv2Q-23">
          <mxGeometry width="50" height="50" relative="1" as="geometry">
            <mxPoint x="239.65999999999997" y="240" as="sourcePoint" />
            <mxPoint x="239.65999999999997" y="80" as="targetPoint" />
          </mxGeometry>
        </mxCell>
        <mxCell id="LVVy7EBwjXT8dUYhMv2Q-19" value="T1" style="edgeLabel;html=1;align=center;verticalAlign=middle;resizable=0;points=[];" vertex="1" connectable="0" parent="LVVy7EBwjXT8dUYhMv2Q-18">
          <mxGeometry x="-0.1101" y="2" relative="1" as="geometry">
            <mxPoint as="offset" />
          </mxGeometry>
        </mxCell>
        <mxCell id="LVVy7EBwjXT8dUYhMv2Q-20" value="" style="endArrow=none;dashed=1;html=1;dashPattern=1 3;strokeWidth=2;rounded=0;" edge="1" parent="LVVy7EBwjXT8dUYhMv2Q-23">
          <mxGeometry width="50" height="50" relative="1" as="geometry">
            <mxPoint x="439.65999999999997" y="240" as="sourcePoint" />
            <mxPoint x="439.65999999999997" y="80" as="targetPoint" />
          </mxGeometry>
        </mxCell>
        <mxCell id="LVVy7EBwjXT8dUYhMv2Q-22" value="T2" style="edgeLabel;html=1;align=center;verticalAlign=middle;resizable=0;points=[];" vertex="1" connectable="0" parent="LVVy7EBwjXT8dUYhMv2Q-20">
          <mxGeometry x="0.0451" y="1" relative="1" as="geometry">
            <mxPoint x="1" y="13" as="offset" />
          </mxGeometry>
        </mxCell>
      </root>
    </mxGraphModel>
  </diagram>
</mxfile>
